<svg width="32" height="33" viewBox="0 0 32 33" fill="none" xmlns="http://www.w3.org/2000/svg">
<g clip-path="url(#clip0_1116_4879)">
<rect width="32" height="33" rx="5" fill="#25472B"/>
<mask id="mask0_1116_4879" style="mask-type:luminance" maskUnits="userSpaceOnUse" x="12" y="1" width="7" height="5">
<path d="M12.6289 1.26318H18.6022V5.4559H12.6289V1.26318Z" fill="white"/>
</mask>
<g mask="url(#mask0_1116_4879)">
<path d="M17.1722 5.19843C17.1089 5.19843 17.0566 5.14584 17.0566 5.07915C17.0566 5.01384 17.1089 4.95987 17.1722 4.95987C17.2369 4.95987 17.2879 5.01384 17.2879 5.07915C17.2879 5.14584 17.2369 5.19843 17.1722 5.19843ZM16.6496 5.19843C16.5862 5.19843 16.5339 5.14584 16.5339 5.07915C16.5339 5.01384 16.5862 4.95987 16.6496 4.95987C16.7142 4.95987 16.7652 5.01384 16.7652 5.07915C16.7652 5.14584 16.7142 5.19843 16.6496 5.19843ZM16.1269 5.19843C16.0636 5.19843 16.0116 5.14584 16.0116 5.07915C16.0116 5.01384 16.0636 4.95987 16.1269 4.95987C16.1906 4.95987 16.2429 5.01384 16.2429 5.07915C16.2429 5.14584 16.1906 5.19843 16.1269 5.19843ZM15.6112 5.19706C15.5509 5.19293 15.5029 5.14378 15.5029 5.07915C15.5029 5.0159 15.5509 4.96572 15.6112 4.96125C15.6719 4.96572 15.7199 5.0159 15.7199 5.07915C15.7199 5.14378 15.6719 5.19293 15.6112 5.19706ZM15.0959 5.19843C15.0322 5.19843 14.9802 5.14584 14.9802 5.07915C14.9802 5.01384 15.0322 4.95987 15.0959 4.95987C15.1592 4.95987 15.2116 5.01384 15.2116 5.07915C15.2116 5.14584 15.1592 5.19843 15.0959 5.19843ZM14.5732 5.19843C14.5086 5.19843 14.4576 5.14584 14.4576 5.07915C14.4576 5.01384 14.5086 4.95987 14.5732 4.95987C14.6366 4.95987 14.6889 5.01384 14.6889 5.07915C14.6889 5.14584 14.6366 5.19843 14.5732 5.19843ZM14.0506 5.19843C13.9859 5.19843 13.9349 5.14584 13.9349 5.07915C13.9349 5.01384 13.9859 4.95987 14.0506 4.95987C14.1142 4.95987 14.1662 5.01384 14.1662 5.07915C14.1662 5.14584 14.1142 5.19843 14.0506 5.19843ZM17.0056 3.45872C16.9692 3.57559 16.9772 3.70209 17.0202 3.81656C17.0929 4.00837 17.1712 4.3614 16.8842 4.56353C16.4762 4.85365 16.0796 4.47828 16.0046 4.05168C15.9276 3.6165 16.0296 3.30093 16.3619 3.19575C16.6926 3.09056 15.6049 1.26318 15.6049 1.26318C15.6049 1.26318 14.5302 3.09056 14.8612 3.19575C15.1932 3.30093 15.2952 3.6165 15.2182 4.05168C15.1436 4.47828 14.7466 4.85365 14.3386 4.56353C14.0516 4.3614 14.1299 4.00837 14.2026 3.81656C14.2456 3.70209 14.2536 3.57559 14.2172 3.45872C13.9396 2.56703 12.6426 2.57837 12.6426 2.57837C13.9056 4.37997 13.8919 5.40537 13.8919 5.40537H17.3309C17.3309 5.40537 17.3172 4.37997 18.5802 2.57837C18.5802 2.57837 17.2836 2.56703 17.0056 3.45872Z" fill="#DBBE67"/>
</g>
<path d="M17.1329 5.65601H14.0903C13.9879 5.65601 13.9053 5.74126 13.9053 5.84644C13.9053 5.95197 13.9879 6.03722 14.0903 6.03722H17.1329C17.2349 6.03722 17.3176 5.95197 17.3176 5.84644C17.3176 5.74126 17.2349 5.65601 17.1329 5.65601Z" fill="#DBBE67"/>
<mask id="mask1_1116_4879" style="mask-type:luminance" maskUnits="userSpaceOnUse" x="12" y="1" width="7" height="5">
<path d="M12.6289 1.26318H18.6022V5.4559H12.6289V1.26318Z" fill="white"/>
</mask>
<g mask="url(#mask1_1116_4879)">
<path d="M17.1722 5.19843C17.1089 5.19843 17.0566 5.14584 17.0566 5.07915C17.0566 5.01384 17.1089 4.95987 17.1722 4.95987C17.2369 4.95987 17.2879 5.01384 17.2879 5.07915C17.2879 5.14584 17.2369 5.19843 17.1722 5.19843ZM16.6496 5.19843C16.5862 5.19843 16.5339 5.14584 16.5339 5.07915C16.5339 5.01384 16.5862 4.95987 16.6496 4.95987C16.7142 4.95987 16.7652 5.01384 16.7652 5.07915C16.7652 5.14584 16.7142 5.19843 16.6496 5.19843ZM16.1269 5.19843C16.0636 5.19843 16.0116 5.14584 16.0116 5.07915C16.0116 5.01384 16.0636 4.95987 16.1269 4.95987C16.1906 4.95987 16.2429 5.01384 16.2429 5.07915C16.2429 5.14584 16.1906 5.19843 16.1269 5.19843ZM15.6112 5.19706C15.5509 5.19293 15.5029 5.14378 15.5029 5.07915C15.5029 5.0159 15.5509 4.96572 15.6112 4.96125C15.6719 4.96572 15.7199 5.0159 15.7199 5.07915C15.7199 5.14378 15.6719 5.19293 15.6112 5.19706ZM15.0959 5.19843C15.0322 5.19843 14.9802 5.14584 14.9802 5.07915C14.9802 5.01384 15.0322 4.95987 15.0959 4.95987C15.1592 4.95987 15.2116 5.01384 15.2116 5.07915C15.2116 5.14584 15.1592 5.19843 15.0959 5.19843ZM14.5732 5.19843C14.5086 5.19843 14.4576 5.14584 14.4576 5.07915C14.4576 5.01384 14.5086 4.95987 14.5732 4.95987C14.6366 4.95987 14.6889 5.01384 14.6889 5.07915C14.6889 5.14584 14.6366 5.19843 14.5732 5.19843ZM14.0506 5.19843C13.9859 5.19843 13.9349 5.14584 13.9349 5.07915C13.9349 5.01384 13.9859 4.95987 14.0506 4.95987C14.1142 4.95987 14.1662 5.01384 14.1662 5.07915C14.1662 5.14584 14.1142 5.19843 14.0506 5.19843ZM17.0056 3.45872C16.9692 3.57559 16.9772 3.70209 17.0202 3.81656C17.0929 4.00837 17.1712 4.3614 16.8842 4.56353C16.4762 4.85365 16.0796 4.47828 16.0046 4.05168C15.9276 3.6165 16.0296 3.30093 16.3619 3.19575C16.6926 3.09056 15.6049 1.26318 15.6049 1.26318C15.6049 1.26318 14.5302 3.09056 14.8612 3.19575C15.1932 3.30093 15.2952 3.6165 15.2182 4.05168C15.1436 4.47828 14.7466 4.85365 14.3386 4.56353C14.0516 4.3614 14.1299 4.00837 14.2026 3.81656C14.2456 3.70209 14.2536 3.57559 14.2172 3.45872C13.9396 2.56703 12.6426 2.57837 12.6426 2.57837C13.9056 4.37997 13.8919 5.40537 13.8919 5.40537H17.3309C17.3309 5.40537 17.3172 4.37997 18.5802 2.57837C18.5802 2.57837 17.2836 2.56703 17.0056 3.45872Z" fill="#DBBE67"/>
</g>
<path d="M17.1329 5.65601H14.0903C13.9879 5.65601 13.9053 5.74126 13.9053 5.84644C13.9053 5.95197 13.9879 6.03722 14.0903 6.03722H17.1329C17.2349 6.03722 17.3176 5.95197 17.3176 5.84644C17.3176 5.74126 17.2349 5.65601 17.1329 5.65601Z" fill="#DBBE67"/>
<path d="M15.9547 6.59763C15.826 6.43125 15.591 6.4041 15.4297 6.53678C15.2683 6.66947 15.242 6.91181 15.3707 7.07819C15.4993 7.24456 15.7343 7.27172 15.8957 7.13903C16.057 7.00635 16.0833 6.764 15.9547 6.59763Z" fill="#DBBE67"/>
<path d="M14.1069 6.80169C14.0503 6.85359 14.0433 6.92509 14.0413 6.99934C14.0396 7.06122 13.9643 7.06363 13.9436 7.01275C13.9083 6.92647 13.9246 6.82816 13.9866 6.75838C14.0239 6.71609 14.1279 6.65387 14.1749 6.71369C14.2013 6.74737 14.1236 6.78622 14.1069 6.80169ZM14.1263 6.58203C13.9203 6.58203 13.7529 6.75425 13.7529 6.96703C13.7529 7.17981 13.9203 7.35238 14.1263 7.35238C14.3326 7.35238 14.4999 7.17981 14.4999 6.96703C14.4999 6.75425 14.3326 6.58203 14.1263 6.58203Z" fill="#DBBE67"/>
<path d="M12.7426 7.22466C12.7092 7.27072 12.6592 7.29651 12.6292 7.34704C12.5979 7.40032 12.5826 7.4646 12.5706 7.5251C12.5622 7.56738 12.4929 7.5691 12.4859 7.5251C12.4722 7.43676 12.4822 7.35426 12.5349 7.28001C12.5762 7.22122 12.6499 7.16451 12.7236 7.17654C12.7426 7.17929 12.7542 7.20885 12.7426 7.22466ZM12.7692 7.06379C12.5692 7.01119 12.3659 7.13597 12.3152 7.34222C12.2646 7.54847 12.3856 7.75816 12.5856 7.81041C12.7852 7.86301 12.9886 7.73822 13.0396 7.53197C13.0902 7.32572 12.9692 7.11604 12.7692 7.06379Z" fill="#DBBE67"/>
<path d="M11.3995 7.97008C11.3622 8.01133 11.3139 8.03195 11.2842 8.08283C11.2559 8.1313 11.2442 8.19558 11.2469 8.25127C11.2499 8.30317 11.1805 8.30523 11.1652 8.26261C11.1345 8.17702 11.1465 8.09486 11.1955 8.01889C11.2342 7.95873 11.3109 7.89514 11.3852 7.91405C11.4095 7.92058 11.4155 7.9522 11.3995 7.97008ZM11.3659 7.82227C11.1595 7.82227 10.9922 7.99483 10.9922 8.20761C10.9922 8.42039 11.1595 8.59295 11.3659 8.59295C11.5722 8.59295 11.7395 8.42039 11.7395 8.20761C11.7395 7.99483 11.5722 7.82227 11.3659 7.82227Z" fill="#DBBE67"/>
<path d="M10.3017 8.93612C10.2597 8.96568 10.215 8.9784 10.1804 9.01965C10.146 9.06021 10.1294 9.11281 10.1174 9.16403C10.1064 9.21146 10.0284 9.21559 10.0204 9.16403C10.0067 9.07603 10.0304 8.99387 10.0944 8.93096C10.146 8.88078 10.2354 8.84434 10.3017 8.88318C10.3224 8.89521 10.3197 8.9234 10.3017 8.93612ZM10.2477 8.73193C10.041 8.73193 9.87402 8.9045 9.87402 9.11728C9.87402 9.33006 10.041 9.50262 10.2477 9.50262C10.4537 9.50262 10.621 9.33006 10.621 9.11728C10.621 8.9045 10.4537 8.73193 10.2477 8.73193Z" fill="#DBBE67"/>
<path d="M9.33864 9.97833C9.26864 10.0278 9.21364 10.0639 9.20397 10.1616C9.19997 10.2021 9.14097 10.2169 9.13064 10.1719C9.11297 10.0928 9.1313 10.0234 9.1913 9.96871C9.22864 9.93468 9.28864 9.89927 9.33864 9.92333C9.3613 9.93433 9.35597 9.9663 9.33864 9.97833ZM9.36097 9.81299C9.15464 9.81299 8.9873 9.98521 8.9873 10.1983C8.9873 10.4108 9.15464 10.5833 9.36097 10.5833C9.5673 10.5833 9.73464 10.4108 9.73464 10.1983C9.73464 9.98521 9.5673 9.81299 9.36097 9.81299Z" fill="#DBBE67"/>
<path d="M8.59159 11.3189C8.56059 11.3492 8.52426 11.3694 8.49992 11.4069C8.47592 11.4437 8.46026 11.4925 8.45226 11.5355C8.44392 11.5788 8.38826 11.5623 8.38426 11.5262C8.37092 11.4117 8.44726 11.2704 8.57426 11.2763C8.59459 11.2773 8.60759 11.3034 8.59159 11.3189ZM8.61292 11.1611C8.40659 11.1611 8.23926 11.3337 8.23926 11.5465C8.23926 11.7593 8.40659 11.9318 8.61292 11.9318C8.81926 11.9318 8.98659 11.7593 8.98659 11.5465C8.98659 11.3337 8.81926 11.1611 8.61292 11.1611Z" fill="#DBBE67"/>
<path d="M8.15422 12.9415C8.12689 12.9838 8.08155 13.0082 8.05489 13.0525C8.02722 13.0993 8.02322 13.156 8.01355 13.2086C8.00389 13.2612 7.93689 13.2491 7.92189 13.2086C7.89389 13.135 7.90955 13.0549 7.95222 12.9906C7.98755 12.937 8.05655 12.8782 8.12322 12.8861C8.14789 12.8889 8.17055 12.9157 8.15422 12.9415ZM8.14222 12.7913C7.93589 12.7913 7.76855 12.9638 7.76855 13.1766C7.76855 13.3894 7.93589 13.5619 8.14222 13.5619C8.34855 13.5619 8.51589 13.3894 8.51589 13.1766C8.51589 12.9638 8.34855 12.7913 8.14222 12.7913Z" fill="#DBBE67"/>
<path d="M8.01838 14.5473C7.97805 14.5676 7.93571 14.5768 7.90571 14.614C7.87538 14.6518 7.86705 14.703 7.85471 14.7491C7.84338 14.791 7.77871 14.7941 7.76905 14.7491C7.73938 14.6112 7.84838 14.4077 8.00905 14.473C8.03738 14.4844 8.05238 14.5304 8.01838 14.5473ZM7.99671 14.3403C7.79038 14.3403 7.62305 14.5129 7.62305 14.7253C7.62305 14.9381 7.79038 15.1107 7.99671 15.1107C8.20305 15.1107 8.37038 14.9381 8.37038 14.7253C8.37038 14.5129 8.20305 14.3403 7.99671 14.3403Z" fill="#DBBE67"/>
<path d="M8.01755 9.02644C7.90522 9.45579 7.65322 9.83082 7.56588 10.2677C7.56222 10.2863 7.53322 10.2818 7.53388 10.2633C7.54888 9.89201 7.70822 9.5651 7.82488 9.21963C7.97155 8.78513 8.01922 7.82332 8.03088 7.87454C8.11755 8.26091 8.11822 8.64248 8.01755 9.02644ZM7.12022 16.513C7.14155 16.5212 6.31388 16.3414 5.79722 15.7103C5.08388 14.8389 4.92355 14.1971 4.94888 14.2449C5.42088 15.1363 6.16388 16.1527 7.12022 16.513ZM6.41788 10.0494C6.41655 10.9308 6.09855 11.7386 5.97455 12.6004C5.84655 13.4876 6.16188 14.3315 6.65188 15.0486C6.66322 15.0651 6.63722 15.0854 6.62488 15.0703C6.13655 14.4852 5.82555 13.7097 5.79855 12.9349C5.76422 11.9521 6.41788 9.97966 6.41788 10.0494ZM6.58388 11.7331C6.29322 13.5619 6.61622 14.1549 6.60888 14.1449C5.91055 13.1765 6.59455 11.664 6.58388 11.7331ZM12.8032 5.18298C12.5882 4.38341 11.6975 4.33151 11.1699 4.84541C10.8635 5.14448 10.6622 5.51366 10.5215 5.91241C10.3465 5.45316 9.90788 5.14963 9.37055 5.35623C9.05522 5.47757 8.75622 5.7701 8.67455 6.11385C8.62622 6.31529 8.65988 6.54388 8.77788 6.70441C8.84288 6.81716 8.96122 6.89313 9.09722 6.89313C9.30355 6.89313 9.47088 6.72057 9.47088 6.50779C9.47088 6.29501 9.30355 6.12279 9.09722 6.12279C9.04955 6.12279 9.00422 6.13276 8.96222 6.1496C9.01455 5.95057 9.16555 5.77319 9.38455 5.65873C9.85488 5.41019 10.2979 5.75704 10.3309 6.26648C10.3822 7.0626 9.70288 7.90616 9.18388 8.41698C8.83655 8.75798 8.47822 9.13198 8.16122 9.54001C8.39122 9.19488 8.52755 8.74079 8.46888 8.32176C8.44022 8.1186 8.36322 7.91648 8.21688 7.77348C8.15355 7.71194 8.08355 7.66107 8.02055 7.59679C7.97222 7.54763 7.79022 7.43729 7.76855 7.38504C8.07822 8.14438 7.70588 9.10757 7.45722 9.83941C7.33822 10.1876 7.19822 10.5273 7.03922 10.8569C7.01722 10.9013 6.99222 10.9453 6.96455 10.991C7.03955 10.4317 6.98655 9.85419 6.81888 9.31726C6.73455 9.04638 6.62022 8.78513 6.47588 8.54244C6.41222 8.43554 6.35355 8.32863 6.29188 8.22104C6.24488 8.13957 6.09455 8.01823 6.07188 7.93882C6.09855 8.03198 6.11855 8.12616 6.13588 8.22173C6.31255 9.19694 5.90388 10.2426 5.64755 11.1659C5.38588 12.1089 5.14388 13.1508 5.53122 14.0961C5.45055 14.0961 5.23455 13.8359 5.17455 13.7757C5.05722 13.6588 4.94722 13.533 4.86122 13.3897C4.66755 13.0659 4.64388 12.786 4.61288 12.411C4.33655 12.8699 4.37655 13.5626 4.48288 14.0686C4.59555 14.6062 4.83588 15.1149 5.17955 15.5357C5.50455 15.9338 5.92555 16.2149 6.35022 16.4875C6.52855 16.6017 6.69455 16.7244 6.85922 16.8512C6.60488 16.7756 6.33622 16.7484 6.05555 16.7928C5.19888 16.9296 4.63855 17.7659 4.68422 18.6363C4.73122 19.5153 5.33188 20.31 6.26022 20.0732C7.06822 19.8676 7.32122 18.549 6.48088 18.3404C6.47188 18.3383 6.46255 18.339 6.45322 18.341C6.43255 18.3373 6.41222 18.3345 6.39055 18.3345C6.18422 18.3345 6.01722 18.5067 6.01722 18.7199C6.01722 18.9326 6.18422 19.1049 6.39055 19.1049C6.54755 19.1049 6.68155 19.0052 6.73655 18.8639C6.83688 19.1939 6.68155 19.5889 6.32655 19.7494C5.78555 19.9948 5.24322 19.6779 5.05788 19.1358C4.73122 18.1812 5.27355 17.064 6.32122 17.0554C7.13922 17.0485 7.87555 17.7391 8.42755 18.295C9.01555 18.8869 9.57121 19.4933 10.2259 20.0065C10.2802 20.0488 10.3269 20.0759 10.3905 20.0557C9.56521 18.9715 8.93455 18.3053 8.66322 17.9399C8.14588 17.2438 7.80888 16.5532 7.52222 15.7285C7.09588 14.5017 6.96922 13.1387 7.29622 11.8703C7.43822 11.3199 7.66555 10.7906 7.98855 10.3018C8.29288 9.84113 8.59155 9.38704 8.98055 9.00204C9.57155 8.41457 10.2479 7.76041 10.5052 6.92648C10.5419 6.80616 10.5689 6.68619 10.5869 6.56244C10.7505 5.93235 11.0572 5.21804 11.5249 4.91519C11.9442 4.64398 12.4765 4.81035 12.5575 5.34901C12.5959 5.59891 12.5452 5.82888 12.4199 5.98941C12.4082 5.94438 12.3895 5.90073 12.3615 5.86085C12.2405 5.68863 12.0069 5.65013 11.8399 5.77491C11.6729 5.89969 11.6355 6.14066 11.7565 6.31288C11.8365 6.42701 11.9655 6.48063 12.0922 6.46929C12.2875 6.47341 12.4869 6.36754 12.6165 6.20873C12.8385 5.93854 12.8929 5.51744 12.8032 5.18298Z" fill="#DBBE67"/>
<path d="M23.3282 7.87454C23.3396 7.82332 23.3876 8.78513 23.5342 9.21963C23.6509 9.5651 23.8102 9.89201 23.8249 10.2633C23.8256 10.2818 23.7969 10.2863 23.7932 10.2677C23.7059 9.83082 23.4539 9.45579 23.3416 9.02644C23.2409 8.64248 23.2416 8.26091 23.3282 7.87454ZM26.4102 14.2449C26.4356 14.1971 26.2752 14.8389 25.5619 15.7103C25.0452 16.3414 24.2176 16.5212 24.2389 16.513C25.1952 16.1527 25.9382 15.1363 26.4102 14.2449ZM25.5606 12.9349C25.5336 13.7097 25.2222 14.4852 24.7342 15.0703C24.7216 15.0854 24.6956 15.0651 24.7072 15.0486C25.1972 14.3315 25.5126 13.4876 25.3846 12.6004C25.2602 11.7386 24.9426 10.9308 24.9409 10.0494C24.9409 9.97966 25.5949 11.9521 25.5606 12.9349ZM24.7502 14.1449C24.7429 14.1549 25.0656 13.5619 24.7752 11.7331C24.7642 11.664 25.4486 13.1765 24.7502 14.1449ZM18.7426 6.20873C18.8722 6.36754 19.0716 6.47341 19.2666 6.46929C19.3932 6.48063 19.5222 6.42701 19.6022 6.31288C19.7232 6.14066 19.6862 5.89969 19.5189 5.77491C19.3519 5.65013 19.1182 5.68863 18.9972 5.86085C18.9692 5.90073 18.9506 5.94438 18.9392 5.98941C18.8136 5.82888 18.7632 5.59891 18.8016 5.34901C18.8826 4.81035 19.4149 4.64398 19.8342 4.91519C20.3019 5.21804 20.6086 5.93235 20.7719 6.56244C20.7899 6.68619 20.8169 6.80616 20.8526 6.92201C21.1112 7.76041 21.7872 8.41457 22.3786 9.00204C22.7672 9.38704 23.0662 9.84113 23.3706 10.3018C23.6936 10.7906 23.9206 11.3199 24.0626 11.8703C24.3899 13.1387 24.2632 14.5017 23.8366 15.7285C23.5499 16.5532 23.2129 17.2438 22.6959 17.9399C22.4242 18.3053 21.7939 18.9715 20.9682 20.0557C21.0322 20.0759 21.0789 20.0488 21.1329 20.0065C21.7876 19.4933 22.3436 18.8869 22.9316 18.295C23.4836 17.7391 24.2196 17.0485 25.0379 17.0554C26.0852 17.064 26.6276 18.1812 26.3012 19.1358C26.1156 19.6779 25.5732 19.9948 25.0322 19.7494C24.6776 19.5889 24.5219 19.1939 24.6222 18.8639C24.6776 19.0052 24.8116 19.1049 24.9682 19.1049C25.1746 19.1049 25.3419 18.9326 25.3419 18.7199C25.3419 18.5067 25.1746 18.3345 24.9682 18.3345C24.9469 18.3345 24.9262 18.3373 24.9059 18.341C24.8966 18.339 24.8872 18.3383 24.8782 18.3404C24.0376 18.549 24.2909 19.8676 25.0986 20.0732C26.0272 20.31 26.6276 19.5153 26.6746 18.6363C26.7206 17.7659 26.1602 16.9296 25.3036 16.7928C25.0226 16.7484 24.7542 16.7756 24.4996 16.8512C24.6642 16.7244 24.8302 16.6017 25.0089 16.4875C25.4336 16.2149 25.8542 15.9338 26.1796 15.5357C26.5229 15.1149 26.7636 14.6062 26.8762 14.0686C26.9822 13.5626 27.0222 12.8699 26.7462 12.411C26.7149 12.786 26.6916 13.0659 26.4976 13.3897C26.4116 13.533 26.3016 13.6588 26.1846 13.7757C26.1242 13.8359 25.9082 14.0961 25.8279 14.0961C26.2149 13.1508 25.9729 12.1089 25.7112 11.1659C25.4552 10.2426 25.0462 9.19694 25.2232 8.22173C25.2406 8.12616 25.2602 8.03198 25.2872 7.93882C25.2642 8.01823 25.1139 8.13957 25.0669 8.22104C25.0056 8.32863 24.9469 8.43554 24.8832 8.54244C24.7389 8.78513 24.6246 9.04638 24.5399 9.31726C24.3722 9.85419 24.3196 10.4317 24.3946 10.991C24.3669 10.9453 24.3419 10.9013 24.3196 10.8569C24.1606 10.5273 24.0209 10.1876 23.9019 9.83941C23.6532 9.10757 23.2806 8.14438 23.5902 7.38504C23.5689 7.43729 23.3869 7.54763 23.3382 7.59679C23.2752 7.66107 23.2052 7.71194 23.1422 7.77348C22.9956 7.91648 22.9186 8.1186 22.8902 8.32176C22.8316 8.74079 22.9676 9.19488 23.1976 9.54001C22.8809 9.13198 22.5222 8.75798 22.1752 8.41698C21.6562 7.90616 20.9769 7.0626 21.0279 6.26648C21.0612 5.75704 21.5039 5.41019 21.9746 5.65873C22.1932 5.77319 22.3442 5.95057 22.3966 6.1496C22.3546 6.13276 22.3096 6.12279 22.2616 6.12279C22.0552 6.12279 21.8879 6.29501 21.8879 6.50779C21.8879 6.72057 22.0552 6.89313 22.2616 6.89313C22.3979 6.89313 22.5159 6.81716 22.5812 6.70441C22.6992 6.54388 22.7329 6.31529 22.6842 6.11385C22.6026 5.7701 22.3039 5.47757 21.9882 5.35623C21.4512 5.14963 21.0126 5.45316 20.8376 5.91241C20.6966 5.51366 20.4956 5.14448 20.1889 4.84541C19.6616 4.33151 18.7709 4.38341 18.5559 5.18298C18.4662 5.51744 18.5202 5.93854 18.7426 6.20873Z" fill="#DBBE67"/>
<path d="M8.13157 8.14443C8.12723 8.10971 8.0959 8.09424 8.07057 8.10008C8.10723 8.36821 8.10123 8.63496 8.0459 8.90205C8.0559 8.89793 8.06523 8.89105 8.07257 8.87937C8.19657 8.68343 8.1589 8.36408 8.13157 8.14443Z" fill="#DBBE67"/>
<path d="M8.72266 7.93028C8.72266 7.8354 8.79732 7.75806 8.88966 7.75806C8.98166 7.75806 9.05666 7.8354 9.05666 7.93028C9.05666 8.02549 8.98166 8.10249 8.88966 8.10249C8.79732 8.10249 8.72266 8.02549 8.72266 7.93028Z" fill="#DBBE67"/>
<path d="M5.83691 17.6983C5.83691 17.6031 5.91158 17.5261 6.00358 17.5261C6.09591 17.5261 6.17058 17.6031 6.17058 17.6983C6.17058 17.7932 6.09591 17.8706 6.00358 17.8706C5.91158 17.8706 5.83691 17.7932 5.83691 17.6983Z" fill="#DBBE67"/>
<path d="M5.30762 18.3443C5.30762 18.2495 5.38228 18.1721 5.47462 18.1721C5.56662 18.1721 5.64162 18.2495 5.64162 18.3443C5.64162 18.4396 5.56662 18.5166 5.47462 18.5166C5.38228 18.5166 5.30762 18.4396 5.30762 18.3443Z" fill="#DBBE67"/>
<path d="M5.5332 19.2621C5.5332 19.1672 5.6082 19.0898 5.7002 19.0898C5.79254 19.0898 5.8672 19.1672 5.8672 19.2621C5.8672 19.3573 5.79254 19.4343 5.7002 19.4343C5.6082 19.4343 5.5332 19.3573 5.5332 19.2621Z" fill="#DBBE67"/>
<path d="M6.73926 17.6983C6.73926 17.6031 6.81392 17.5261 6.90626 17.5261C6.99859 17.5261 7.07326 17.6031 7.07326 17.6983C7.07326 17.7932 6.99859 17.8706 6.90626 17.8706C6.81392 17.8706 6.73926 17.7932 6.73926 17.6983Z" fill="#DBBE67"/>
<path d="M7.45703 18.3443C7.45703 18.2495 7.5317 18.1721 7.6237 18.1721C7.71603 18.1721 7.7907 18.2495 7.7907 18.3443C7.7907 18.4396 7.71603 18.5166 7.6237 18.5166C7.5317 18.5166 7.45703 18.4396 7.45703 18.3443Z" fill="#DBBE67"/>
<path d="M7.99316 18.9839C7.99316 18.889 8.06783 18.812 8.16016 18.812C8.25216 18.812 8.32716 18.889 8.32716 18.9839C8.32716 19.0791 8.25216 19.1561 8.16016 19.1561C8.06783 19.1561 7.99316 19.0791 7.99316 18.9839Z" fill="#DBBE67"/>
<path d="M8.72266 19.6065C8.72266 19.5113 8.79732 19.4343 8.88966 19.4343C8.98166 19.4343 9.05666 19.5113 9.05666 19.6065C9.05666 19.7014 8.98166 19.7788 8.88966 19.7788C8.79732 19.7788 8.72266 19.7014 8.72266 19.6065Z" fill="#DBBE67"/>
<path d="M9.24121 7.35239C9.24121 7.25718 9.31621 7.18018 9.40821 7.18018C9.50054 7.18018 9.57521 7.25718 9.57521 7.35239C9.57521 7.44761 9.50054 7.52461 9.40821 7.52461C9.31621 7.52461 9.24121 7.44761 9.24121 7.35239Z" fill="#DBBE67"/>
<mask id="mask2_1116_4879" style="mask-type:luminance" maskUnits="userSpaceOnUse" x="3" y="15" width="3" height="2">
<path d="M3.37207 15.752H5.71707V16.984H3.37207V15.752Z" fill="white"/>
</mask>
<g mask="url(#mask2_1116_4879)">
<path d="M5.70064 16.3635C5.71098 16.3955 5.06698 17.0696 4.40331 16.9414C3.73931 16.8128 3.93631 15.9569 3.37598 15.8283C3.37598 15.8283 3.94698 15.5392 4.53831 16.1277C5.03998 16.6272 5.70064 16.3635 5.70064 16.3635Z" fill="#DBBE67"/>
</g>
<mask id="mask3_1116_4879" style="mask-type:luminance" maskUnits="userSpaceOnUse" x="13" y="23" width="5" height="3">
<path d="M13.9258 23.144H17.3851V25.5269H13.9258V23.144Z" fill="white"/>
</mask>
<g mask="url(#mask3_1116_4879)">
<path d="M15.6628 24.9861C14.9142 23.575 15.6628 23.5551 15.6628 23.5551C15.6628 23.5551 16.4115 23.575 15.6628 24.9861ZM16.8225 24.1113C16.6978 23.8617 16.5968 23.5905 16.4032 23.3935C16.2092 23.1966 15.8842 23.0697 15.6628 23.2323C15.4415 23.0697 15.1162 23.1966 14.9225 23.3935C14.7288 23.5905 14.6278 23.8617 14.5032 24.1113C14.3788 24.3612 14.2085 24.6121 13.9512 24.7022C14.3025 24.8349 14.7178 24.7679 15.0138 24.531C15.1342 24.9377 15.3625 25.2357 15.6628 25.5269C15.9632 25.2357 16.1912 24.9377 16.3118 24.531C16.6078 24.7679 17.0228 24.8349 17.3745 24.7022C17.1172 24.6121 16.9468 24.3612 16.8225 24.1113Z" fill="#DBBE67"/>
</g>
<path d="M10.2816 21.5912C8.22965 21.0395 7.06098 22.2739 7.09165 22.2247C7.62965 21.3536 8.95031 21.1787 9.85565 21.2856C11.254 21.4502 12.5126 22.2161 13.9396 22.1986C14.0323 22.1975 13.805 22.5382 10.2816 21.5912ZM11.3816 22.5121C10.235 22.4258 9.57165 23.0504 9.58565 23.0311C10.4453 21.8665 11.6203 22.4096 13.068 22.5688C13.148 22.5774 12.6996 22.6114 11.3816 22.5121ZM8.12931 20.8019C8.87065 20.4482 9.77765 20.6135 10.531 20.8421C10.6053 20.8648 9.68598 20.8071 9.27131 20.7868C8.89031 20.7682 8.09531 20.8184 8.12931 20.8019ZM16.1063 20.1216C15.842 19.7597 15.437 19.5376 14.9983 19.5122C14.6833 19.494 14.142 19.6005 14.015 20.0433C14.005 20.078 14.0003 20.145 14.0036 20.21C14.0033 20.2158 14.002 20.221 14.002 20.2265C14.002 20.4393 14.1693 20.6118 14.3756 20.6118C14.582 20.6118 14.749 20.4393 14.749 20.2265C14.749 20.0137 14.582 19.8415 14.3756 19.8415C14.3583 19.8415 14.342 19.8442 14.3253 19.8466C14.6516 19.5541 15.3006 19.6662 15.5813 19.97C15.7456 20.1481 15.824 20.4657 15.8063 20.7067C15.785 20.9975 15.6286 21.2536 15.4256 21.4485C14.922 21.9339 14.3313 22.0037 13.6753 21.8741C12.6086 21.6599 11.687 21.0364 10.7103 20.5812C10.3116 20.3956 9.89531 20.2131 9.45665 20.1619C9.00565 20.1089 8.53098 20.1887 8.09098 20.2942C7.67965 20.3929 7.27531 20.5434 6.91498 20.7727C6.61298 20.9649 6.12931 21.3169 6.06398 21.7067C6.59565 21.4269 7.23031 21.1649 7.83765 21.1649C7.61231 21.167 7.25065 21.4753 7.07665 21.6084C6.83431 21.7933 6.61465 22.0095 6.42298 22.2498C6.04931 22.718 5.68065 23.3333 5.69165 23.96C5.68998 23.8716 6.62365 22.8751 8.58965 22.3653C8.78331 22.3151 8.98465 22.3031 9.18431 22.291C9.31831 22.2828 9.65698 22.3515 9.76665 22.2907C9.40698 22.5004 9.10931 22.8101 8.92798 23.1996C8.74198 23.6004 8.60365 24.2783 8.88265 24.6695C9.05298 24.3425 9.19431 23.9878 9.46965 23.7379C9.70165 23.5268 9.98998 23.3938 10.2856 23.3085C10.89 23.1346 11.525 23.148 12.1463 23.148C13.281 23.1566 14.5776 23.2666 15.5543 22.5502C16.2823 22.0154 16.6946 20.9264 16.1063 20.1216Z" fill="#DBBE67"/>
<path d="M14.3967 23.5097C14.3967 23.5097 13.5663 23.3409 12.6463 24.0511C11.9683 24.575 11.2637 24.376 11.2637 24.376C11.2637 24.376 12.404 25.2673 13.259 24.4712C14.075 23.7108 14.3967 23.5097 14.3967 23.5097Z" fill="#DBBE67"/>
<path d="M17.1736 6.71369C17.2206 6.65387 17.3246 6.71609 17.3623 6.75838C17.424 6.82816 17.4403 6.92647 17.405 7.01275C17.3843 7.06363 17.3093 7.06122 17.3073 6.99934C17.3053 6.92509 17.2983 6.85359 17.2416 6.80169C17.225 6.78622 17.1473 6.74737 17.1736 6.71369ZM16.8486 6.96703C16.8486 7.17981 17.016 7.35238 17.2223 7.35238C17.4286 7.35238 17.596 7.17981 17.596 6.96703C17.596 6.75425 17.4286 6.58203 17.2223 6.58203C17.016 6.58203 16.8486 6.75425 16.8486 6.96703Z" fill="#DBBE67"/>
<path d="M18.6242 7.17654C18.6979 7.16451 18.7715 7.22122 18.8132 7.28001C18.8655 7.35426 18.8755 7.43676 18.8619 7.5251C18.8549 7.5691 18.7859 7.56738 18.7775 7.5251C18.7652 7.4646 18.7499 7.40032 18.7185 7.34704C18.6885 7.29651 18.6385 7.27072 18.6052 7.22466C18.5939 7.20885 18.6052 7.17929 18.6242 7.17654ZM18.3085 7.53197C18.3592 7.73822 18.5625 7.86301 18.7625 7.81041C18.9625 7.75816 19.0832 7.54847 19.0325 7.34222C18.9819 7.13597 18.7785 7.01119 18.5785 7.06379C18.3785 7.11604 18.2575 7.32572 18.3085 7.53197Z" fill="#DBBE67"/>
<path d="M19.9637 7.91405C20.038 7.89514 20.1147 7.95873 20.1537 8.01889C20.2027 8.09486 20.2144 8.17702 20.1837 8.26261C20.1684 8.30523 20.099 8.30317 20.102 8.25127C20.105 8.19558 20.093 8.1313 20.0647 8.08283C20.035 8.03195 19.987 8.01133 19.9494 7.97008C19.9334 7.9522 19.9394 7.92058 19.9637 7.91405ZM19.6094 8.20761C19.6094 8.42039 19.7767 8.59295 19.983 8.59295C20.1894 8.59295 20.3567 8.42039 20.3567 8.20761C20.3567 7.99483 20.1894 7.82227 19.983 7.82227C19.7767 7.82227 19.6094 7.99483 19.6094 8.20761Z" fill="#DBBE67"/>
<path d="M21.0469 8.88318C21.1132 8.84434 21.2029 8.88078 21.2545 8.93096C21.3185 8.99387 21.3419 9.07603 21.3282 9.16403C21.3202 9.21559 21.2422 9.21146 21.2312 9.16403C21.2192 9.11281 21.2025 9.06021 21.1685 9.01965C21.1335 8.9784 21.0889 8.96568 21.0469 8.93612C21.0289 8.9234 21.0262 8.89521 21.0469 8.88318ZM20.7275 9.11728C20.7275 9.33006 20.8949 9.50262 21.1012 9.50262C21.3075 9.50262 21.4745 9.33006 21.4745 9.11728C21.4745 8.9045 21.3075 8.73193 21.1012 8.73193C20.8949 8.73193 20.7275 8.9045 20.7275 9.11728Z" fill="#DBBE67"/>
<path d="M22.0099 9.92333C22.0599 9.89927 22.1199 9.93468 22.1573 9.96871C22.2173 10.0234 22.2359 10.0928 22.2179 10.1719C22.2079 10.2169 22.1486 10.2021 22.1446 10.1616C22.1349 10.0639 22.0799 10.0278 22.0099 9.97833C21.9926 9.9663 21.9873 9.93433 22.0099 9.92333ZM21.6143 10.1983C21.6143 10.4108 21.7816 10.5833 21.9876 10.5833C22.1943 10.5833 22.3613 10.4108 22.3613 10.1983C22.3613 9.98521 22.1943 9.81299 21.9876 9.81299C21.7816 9.81299 21.6143 9.98521 21.6143 10.1983Z" fill="#DBBE67"/>
<path d="M22.7737 11.2763C22.9007 11.2704 22.977 11.4117 22.9637 11.5262C22.9597 11.5623 22.904 11.5788 22.896 11.5355C22.8877 11.4925 22.872 11.4437 22.848 11.4069C22.8237 11.3694 22.7873 11.3492 22.7563 11.3189C22.7403 11.3034 22.7533 11.2773 22.7737 11.2763ZM22.3613 11.5465C22.3613 11.7593 22.5287 11.9318 22.735 11.9318C22.9413 11.9318 23.1087 11.7593 23.1087 11.5465C23.1087 11.3337 22.9413 11.1611 22.735 11.1611C22.5287 11.1611 22.3613 11.3337 22.3613 11.5465Z" fill="#DBBE67"/>
<path d="M23.2257 12.8861C23.2923 12.8782 23.3613 12.937 23.3967 12.9906C23.4393 13.0549 23.455 13.135 23.4273 13.2086C23.412 13.2491 23.345 13.2612 23.3353 13.2086C23.3257 13.156 23.3217 13.0993 23.294 13.0525C23.2673 13.0082 23.222 12.9838 23.1947 12.9415C23.1783 12.9157 23.201 12.8889 23.2257 12.8861ZM22.833 13.1766C22.833 13.3894 23.0003 13.5619 23.2067 13.5619C23.413 13.5619 23.5803 13.3894 23.5803 13.1766C23.5803 12.9638 23.413 12.7913 23.2067 12.7913C23.0003 12.7913 22.833 12.9638 22.833 13.1766Z" fill="#DBBE67"/>
<path d="M23.3389 14.473C23.4995 14.4077 23.6089 14.6112 23.5789 14.7491C23.5692 14.7941 23.5045 14.791 23.4935 14.7491C23.4809 14.703 23.4725 14.6518 23.4422 14.614C23.4122 14.5768 23.3699 14.5676 23.3295 14.5473C23.2955 14.5304 23.3105 14.4844 23.3389 14.473ZM22.9775 14.7253C22.9775 14.9381 23.1449 15.1107 23.3512 15.1107C23.5575 15.1107 23.7249 14.9381 23.7249 14.7253C23.7249 14.5129 23.5575 14.3403 23.3512 14.3403C23.1449 14.3403 22.9775 14.5129 22.9775 14.7253Z" fill="#DBBE67"/>
<path d="M22.6257 7.93028C22.6257 7.8354 22.551 7.75806 22.459 7.75806C22.3667 7.75806 22.292 7.8354 22.292 7.93028C22.292 8.02549 22.3667 8.10249 22.459 8.10249C22.551 8.10249 22.6257 8.02549 22.6257 7.93028Z" fill="#DBBE67"/>
<path d="M25.5114 17.6983C25.5114 17.6031 25.4367 17.5261 25.3447 17.5261C25.2524 17.5261 25.1777 17.6031 25.1777 17.6983C25.1777 17.7932 25.2524 17.8706 25.3447 17.8706C25.4367 17.8706 25.5114 17.7932 25.5114 17.6983Z" fill="#DBBE67"/>
<path d="M26.041 18.3443C26.041 18.2495 25.966 18.1721 25.874 18.1721C25.7817 18.1721 25.707 18.2495 25.707 18.3443C25.707 18.4396 25.7817 18.5166 25.874 18.5166C25.966 18.5166 26.041 18.4396 26.041 18.3443Z" fill="#DBBE67"/>
<path d="M25.8154 19.2621C25.8154 19.1672 25.7408 19.0898 25.6484 19.0898C25.5561 19.0898 25.4814 19.1672 25.4814 19.2621C25.4814 19.3573 25.5561 19.4343 25.6484 19.4343C25.7408 19.4343 25.8154 19.3573 25.8154 19.2621Z" fill="#DBBE67"/>
<path d="M24.6094 17.6983C24.6094 17.6031 24.5347 17.5261 24.4424 17.5261C24.3504 17.5261 24.2754 17.6031 24.2754 17.6983C24.2754 17.7932 24.3504 17.8706 24.4424 17.8706C24.5347 17.8706 24.6094 17.7932 24.6094 17.6983Z" fill="#DBBE67"/>
<path d="M23.8923 18.3443C23.8923 18.2495 23.8176 18.1721 23.7256 18.1721C23.6333 18.1721 23.5586 18.2495 23.5586 18.3443C23.5586 18.4396 23.6333 18.5166 23.7256 18.5166C23.8176 18.5166 23.8923 18.4396 23.8923 18.3443Z" fill="#DBBE67"/>
<path d="M23.3561 18.9839C23.3561 18.889 23.2815 18.812 23.1895 18.812C23.0971 18.812 23.0225 18.889 23.0225 18.9839C23.0225 19.0791 23.0971 19.1561 23.1895 19.1561C23.2815 19.1561 23.3561 19.0791 23.3561 18.9839Z" fill="#DBBE67"/>
<path d="M22.6257 19.6065C22.6257 19.5113 22.551 19.4343 22.459 19.4343C22.3667 19.4343 22.292 19.5113 22.292 19.6065C22.292 19.7014 22.3667 19.7788 22.459 19.7788C22.551 19.7788 22.6257 19.7014 22.6257 19.6065Z" fill="#DBBE67"/>
<path d="M22.1074 7.35239C22.1074 7.25718 22.0328 7.18018 21.9404 7.18018C21.8481 7.18018 21.7734 7.25718 21.7734 7.35239C21.7734 7.44761 21.8481 7.52461 21.9404 7.52461C22.0328 7.52461 22.1074 7.44761 22.1074 7.35239Z" fill="#DBBE67"/>
<mask id="mask4_1116_4879" style="mask-type:luminance" maskUnits="userSpaceOnUse" x="25" y="15" width="3" height="2">
<path d="M25.6299 15.752H27.9485V16.9592H25.6299V15.752Z" fill="white"/>
</mask>
<g mask="url(#mask4_1116_4879)">
<path d="M25.6486 16.3635C25.6382 16.3955 26.2822 17.0696 26.9459 16.9414C27.6102 16.8128 27.4129 15.9569 27.9732 15.8283C27.9732 15.8283 27.4026 15.5392 26.8109 16.1277C26.3092 16.6272 25.6486 16.3635 25.6486 16.3635Z" fill="#DBBE67"/>
</g>
<path d="M17.3509 22.1986C18.7782 22.2161 20.0366 21.4502 21.4349 21.2856C22.3402 21.1787 23.6612 21.3536 24.1992 22.2247C24.2296 22.2739 23.0609 21.0395 21.0092 21.5912C17.4856 22.5382 17.2582 22.1975 17.3509 22.1986ZM18.2229 22.5688C19.6702 22.4096 20.8456 21.8665 21.7052 23.0311C21.7192 23.0504 21.0556 22.4258 19.9089 22.5121C18.5912 22.6114 18.1426 22.5774 18.2229 22.5688ZM22.0192 20.7868C21.6049 20.8071 20.6852 20.8648 20.7599 20.8421C21.5129 20.6135 22.4202 20.4482 23.1612 20.8019C23.1952 20.8184 22.4002 20.7682 22.0192 20.7868ZM15.7362 22.5502C16.7132 23.2666 18.0096 23.1566 19.1442 23.148C19.7659 23.148 20.4006 23.1346 21.0049 23.3085C21.3009 23.3938 21.5889 23.5268 21.8212 23.7379C22.0962 23.9878 22.2376 24.3425 22.4082 24.6695C22.6872 24.2783 22.5489 23.6004 22.3626 23.1996C22.1816 22.8101 21.8839 22.5004 21.5242 22.2907C21.6339 22.3515 21.9722 22.2828 22.1066 22.291C22.3059 22.3031 22.5072 22.3151 22.7009 22.3653C24.6672 22.8751 25.6006 23.8716 25.5992 23.96C25.6102 23.3333 25.2412 22.718 24.8676 22.2498C24.6762 22.0095 24.4566 21.7933 24.2142 21.6084C24.0399 21.4753 23.6782 21.167 23.4529 21.1649C24.0606 21.1649 24.6949 21.4269 25.2269 21.7067C25.1616 21.3169 24.6779 20.9649 24.3759 20.7727C24.0152 20.5434 23.6109 20.3929 23.1996 20.2942C22.7596 20.1887 22.2852 20.1089 21.8339 20.1619C21.3956 20.2131 20.9789 20.3956 20.5806 20.5812C19.6036 21.0364 18.6819 21.6599 17.6152 21.8741C16.9596 22.0037 16.3686 21.9339 15.8649 21.4485C15.6619 21.2536 15.5056 20.9975 15.4842 20.7067C15.4669 20.4657 15.5449 20.1481 15.7092 19.97C15.9899 19.6662 16.6392 19.5541 16.9656 19.8466C16.9489 19.8442 16.9322 19.8415 16.9152 19.8415C16.7089 19.8415 16.5416 20.0137 16.5416 20.2265C16.5416 20.4393 16.7089 20.6118 16.9152 20.6118C17.1216 20.6118 17.2886 20.4393 17.2886 20.2265C17.2886 20.221 17.2872 20.2158 17.2872 20.21C17.2902 20.145 17.2856 20.078 17.2756 20.0433C17.1486 19.6005 16.6072 19.494 16.2922 19.5122C15.8536 19.5376 15.4489 19.7597 15.1842 20.1216C14.5962 20.9264 15.0086 22.0154 15.7362 22.5502Z" fill="#DBBE67"/>
<path d="M16.9521 23.5097C16.9521 23.5097 17.7825 23.3409 18.7025 24.0511C19.3808 24.575 20.0851 24.376 20.0851 24.376C20.0851 24.376 18.9448 25.2673 18.0898 24.4712C17.2738 23.7108 16.9521 23.5097 16.9521 23.5097Z" fill="#DBBE67"/>
<path d="M15.646 7.68628C11.8826 7.68628 8.82031 10.8443 8.82031 14.7252C8.82031 18.2511 11.347 21.1792 14.6316 21.6858C14.6386 21.6876 14.6456 21.6896 14.6533 21.6896C14.692 21.6896 14.7233 21.6573 14.7233 21.6174C14.7233 21.5796 14.6946 21.5494 14.6586 21.5463C11.446 21.0461 8.95865 18.1768 8.95865 14.7252C8.95865 10.9227 11.9586 7.82894 15.646 7.82894C19.332 7.82894 22.332 10.9227 22.332 14.7252C22.332 18.1957 19.862 21.0709 16.623 21.5463C16.5793 21.5452 16.548 21.5776 16.548 21.6174C16.548 21.6573 16.5793 21.6896 16.618 21.6896C19.9276 21.206 22.4703 18.2697 22.4703 14.7252C22.4703 10.8443 19.4096 7.68628 15.646 7.68628Z" fill="#DBBE67"/>
<mask id="mask5_1116_4879" style="mask-type:luminance" maskUnits="userSpaceOnUse" x="12" y="1" width="7" height="5">
<path d="M12.6289 1.26318H18.6022V5.4559H12.6289V1.26318Z" fill="white"/>
</mask>
<g mask="url(#mask5_1116_4879)">
<path d="M17.1722 5.19843C17.1089 5.19843 17.0566 5.14584 17.0566 5.07915C17.0566 5.01384 17.1089 4.95987 17.1722 4.95987C17.2369 4.95987 17.2879 5.01384 17.2879 5.07915C17.2879 5.14584 17.2369 5.19843 17.1722 5.19843ZM16.6496 5.19843C16.5862 5.19843 16.5339 5.14584 16.5339 5.07915C16.5339 5.01384 16.5862 4.95987 16.6496 4.95987C16.7142 4.95987 16.7652 5.01384 16.7652 5.07915C16.7652 5.14584 16.7142 5.19843 16.6496 5.19843ZM16.1269 5.19843C16.0636 5.19843 16.0116 5.14584 16.0116 5.07915C16.0116 5.01384 16.0636 4.95987 16.1269 4.95987C16.1906 4.95987 16.2429 5.01384 16.2429 5.07915C16.2429 5.14584 16.1906 5.19843 16.1269 5.19843ZM15.6112 5.19706C15.5509 5.19293 15.5029 5.14378 15.5029 5.07915C15.5029 5.0159 15.5509 4.96572 15.6112 4.96125C15.6719 4.96572 15.7199 5.0159 15.7199 5.07915C15.7199 5.14378 15.6719 5.19293 15.6112 5.19706ZM15.0959 5.19843C15.0322 5.19843 14.9802 5.14584 14.9802 5.07915C14.9802 5.01384 15.0322 4.95987 15.0959 4.95987C15.1592 4.95987 15.2116 5.01384 15.2116 5.07915C15.2116 5.14584 15.1592 5.19843 15.0959 5.19843ZM14.5732 5.19843C14.5086 5.19843 14.4576 5.14584 14.4576 5.07915C14.4576 5.01384 14.5086 4.95987 14.5732 4.95987C14.6366 4.95987 14.6889 5.01384 14.6889 5.07915C14.6889 5.14584 14.6366 5.19843 14.5732 5.19843ZM14.0506 5.19843C13.9859 5.19843 13.9349 5.14584 13.9349 5.07915C13.9349 5.01384 13.9859 4.95987 14.0506 4.95987C14.1142 4.95987 14.1662 5.01384 14.1662 5.07915C14.1662 5.14584 14.1142 5.19843 14.0506 5.19843ZM17.0056 3.45872C16.9692 3.57559 16.9772 3.70209 17.0202 3.81656C17.0929 4.00837 17.1712 4.3614 16.8842 4.56353C16.4762 4.85365 16.0796 4.47828 16.0046 4.05168C15.9276 3.6165 16.0296 3.30093 16.3619 3.19575C16.6926 3.09056 15.6049 1.26318 15.6049 1.26318C15.6049 1.26318 14.5302 3.09056 14.8612 3.19575C15.1932 3.30093 15.2952 3.6165 15.2182 4.05168C15.1436 4.47828 14.7466 4.85365 14.3386 4.56353C14.0516 4.3614 14.1299 4.00837 14.2026 3.81656C14.2456 3.70209 14.2536 3.57559 14.2172 3.45872C13.9396 2.56703 12.6426 2.57837 12.6426 2.57837C13.9056 4.37997 13.8919 5.40537 13.8919 5.40537H17.3309C17.3309 5.40537 17.3172 4.37997 18.5802 2.57837C18.5802 2.57837 17.2836 2.56703 17.0056 3.45872Z" fill="#DBBE67"/>
</g>
<path d="M17.1329 5.65601H14.0903C13.9879 5.65601 13.9053 5.74126 13.9053 5.84644C13.9053 5.95197 13.9879 6.03722 14.0903 6.03722H17.1329C17.2349 6.03722 17.3176 5.95197 17.3176 5.84644C17.3176 5.74126 17.2349 5.65601 17.1329 5.65601Z" fill="#DBBE67"/>
<mask id="mask6_1116_4879" style="mask-type:luminance" maskUnits="userSpaceOnUse" x="-4" y="-4" width="40" height="41">
<path d="M35.1998 -3.30005H-3.2002V36.2999H35.1998V-3.30005Z" fill="black" fill-opacity="0.25"/>
</mask>
<g mask="url(#mask6_1116_4879)">
<mask id="mask7_1116_4879" style="mask-type:luminance" maskUnits="userSpaceOnUse" x="9" y="8" width="13" height="13">
<path d="M21.4184 8.88794H9.89844V20.7679H21.4184V8.88794Z" fill="white"/>
</mask>
<g mask="url(#mask7_1116_4879)">
<mask id="mask8_1116_4879" style="mask-type:luminance" maskUnits="userSpaceOnUse" x="15" y="8" width="1" height="13">
<path d="M15.6152 8.96362H15.7859V20.7116H15.6152V8.96362Z" fill="white"/>
</mask>
<g mask="url(#mask8_1116_4879)">
<path d="M15.6739 20.7041C15.6489 20.7041 15.6289 20.6831 15.6289 20.6573V9.01003C15.6289 8.98425 15.6489 8.96362 15.6739 8.96362C15.6989 8.96362 15.7192 8.98425 15.7192 9.01003V20.6573C15.7192 20.6831 15.6989 20.7041 15.6739 20.7041Z" fill="#DBBE67"/>
</g>
<path d="M16.6548 20.6158C16.6331 20.6158 16.6141 20.5996 16.6105 20.5773L14.6491 9.10669C14.6448 9.08125 14.6611 9.05719 14.6858 9.05272C14.7105 9.04825 14.7338 9.0651 14.7381 9.09053L16.6995 20.5608C16.7038 20.5862 16.6871 20.6103 16.6628 20.6148C16.6601 20.6154 16.6575 20.6158 16.6548 20.6158Z" fill="#DBBE67"/>
<path d="M16.6548 20.6158C16.6331 20.6158 16.6141 20.5996 16.6105 20.5773L14.6491 9.10669C14.6448 9.08125 14.6611 9.05719 14.6858 9.05272C14.7105 9.04825 14.7338 9.0651 14.7381 9.09053L16.6995 20.5608C16.7038 20.5862 16.6871 20.6103 16.6628 20.6148C16.6601 20.6154 16.6575 20.6158 16.6548 20.6158Z" fill="#DBBE67"/>
<path d="M17.6056 20.3527C17.5869 20.3527 17.5696 20.341 17.5629 20.3221L13.6999 9.37707C13.6916 9.35301 13.7036 9.32619 13.7269 9.3176C13.7506 9.30866 13.7766 9.32104 13.7849 9.34544L17.6479 20.2901C17.6562 20.3145 17.6442 20.341 17.6209 20.3499C17.6159 20.352 17.6106 20.3527 17.6056 20.3527Z" fill="#DBBE67"/>
<path d="M17.6056 20.3527C17.5869 20.3527 17.5696 20.341 17.5629 20.3221L13.6999 9.37707C13.6916 9.35301 13.7036 9.32619 13.7269 9.3176C13.7506 9.30866 13.7766 9.32104 13.7849 9.34544L17.6479 20.2901C17.6562 20.3145 17.6442 20.341 17.6209 20.3499C17.6159 20.352 17.6106 20.3527 17.6056 20.3527Z" fill="#DBBE67"/>
<path d="M18.497 19.9237C18.4813 19.9237 18.4663 19.9154 18.458 19.9003L12.8107 9.81365C12.7983 9.79131 12.8057 9.76278 12.8273 9.75006C12.8487 9.73699 12.8763 9.74456 12.889 9.7669L18.536 19.8539C18.5487 19.8762 18.5413 19.9048 18.5197 19.9175C18.5123 19.9216 18.5047 19.9237 18.497 19.9237Z" fill="#DBBE67"/>
<path d="M18.497 19.9237C18.4813 19.9237 18.4663 19.9154 18.458 19.9003L12.8107 9.81365C12.7983 9.79131 12.8057 9.76278 12.8273 9.75006C12.8487 9.73699 12.8763 9.74456 12.889 9.7669L18.536 19.8539C18.5487 19.8762 18.5413 19.9048 18.5197 19.9175C18.5123 19.9216 18.5047 19.9237 18.497 19.9237Z" fill="#DBBE67"/>
<path d="M19.3041 19.3414C19.2911 19.3414 19.2784 19.3359 19.2694 19.3249L12.0098 10.4025C11.9934 10.3829 11.9961 10.3533 12.0151 10.3368C12.0344 10.3203 12.0628 10.3228 12.0788 10.3427L19.3388 19.2651C19.3548 19.2847 19.3521 19.3142 19.3331 19.3307C19.3248 19.3379 19.3144 19.3414 19.3041 19.3414Z" fill="#DBBE67"/>
<path d="M19.3041 19.3414C19.2911 19.3414 19.2784 19.3359 19.2694 19.3249L12.0098 10.4025C11.9934 10.3829 11.9961 10.3533 12.0151 10.3368C12.0344 10.3203 12.0628 10.3228 12.0788 10.3427L19.3388 19.2651C19.3548 19.2847 19.3521 19.3142 19.3331 19.3307C19.3248 19.3379 19.3144 19.3414 19.3041 19.3414Z" fill="#DBBE67"/>
<path d="M19.9999 18.6238C19.9895 18.6238 19.9792 18.6203 19.9709 18.6128L11.3189 11.1262C11.2999 11.1097 11.2972 11.0802 11.3132 11.0606C11.3292 11.041 11.3579 11.0382 11.3769 11.0547L20.0289 18.5416C20.0482 18.5581 20.0505 18.5873 20.0345 18.6073C20.0255 18.6183 20.0129 18.6238 19.9999 18.6238Z" fill="#DBBE67"/>
<path d="M19.9999 18.6238C19.9895 18.6238 19.9792 18.6203 19.9709 18.6128L11.3189 11.1262C11.2999 11.1097 11.2972 11.0802 11.3132 11.0606C11.3292 11.041 11.3579 11.0382 11.3769 11.0547L20.0289 18.5416C20.0482 18.5581 20.0505 18.5873 20.0345 18.6073C20.0255 18.6183 20.0129 18.6238 19.9999 18.6238Z" fill="#DBBE67"/>
<path d="M20.5646 17.7921C20.5569 17.7921 20.5493 17.79 20.5419 17.7859L10.7609 11.9621C10.7393 11.9494 10.7319 11.9208 10.7443 11.8985C10.7566 11.8761 10.7843 11.8686 10.8059 11.8816L20.5873 17.7051C20.6089 17.7182 20.6163 17.7467 20.6036 17.7687C20.5953 17.7838 20.5803 17.7921 20.5646 17.7921Z" fill="#DBBE67"/>
<path d="M20.5646 17.7921C20.5569 17.7921 20.5493 17.79 20.5419 17.7859L10.7609 11.9621C10.7393 11.9494 10.7319 11.9208 10.7443 11.8985C10.7566 11.8761 10.7843 11.8686 10.8059 11.8816L20.5873 17.7051C20.6089 17.7182 20.6163 17.7467 20.6036 17.7687C20.5953 17.7838 20.5803 17.7921 20.5646 17.7921Z" fill="#DBBE67"/>
<path d="M20.9807 16.8724C20.9757 16.8724 20.9704 16.8714 20.9654 16.8696L10.352 12.8859C10.3287 12.877 10.3164 12.8502 10.325 12.8261C10.3337 12.8021 10.3594 12.7893 10.383 12.7983L20.996 16.782C21.0197 16.7906 21.0317 16.8174 21.023 16.8418C21.0164 16.8607 20.999 16.8724 20.9807 16.8724Z" fill="#DBBE67"/>
<path d="M20.9807 16.8724C20.9757 16.8724 20.9704 16.8714 20.9654 16.8696L10.352 12.8859C10.3287 12.877 10.3164 12.8502 10.325 12.8261C10.3337 12.8021 10.3594 12.7893 10.383 12.7983L20.996 16.782C21.0197 16.7906 21.0317 16.8174 21.023 16.8418C21.0164 16.8607 20.999 16.8724 20.9807 16.8724Z" fill="#DBBE67"/>
<path d="M21.2351 15.8917C21.2327 15.8917 21.2301 15.8917 21.2274 15.891L10.1044 13.8684C10.0801 13.8639 10.0637 13.8398 10.0681 13.8144C10.0724 13.7893 10.0957 13.7721 10.1204 13.7766L21.2431 15.7992C21.2677 15.8037 21.2841 15.8281 21.2797 15.8532C21.2757 15.8759 21.2567 15.8917 21.2351 15.8917Z" fill="#DBBE67"/>
<path d="M21.2351 15.8917C21.2327 15.8917 21.2301 15.8917 21.2274 15.891L10.1044 13.8684C10.0801 13.8639 10.0637 13.8398 10.0681 13.8144C10.0724 13.7893 10.0957 13.7721 10.1204 13.7766L21.2431 15.7992C21.2677 15.8037 21.2841 15.8281 21.2797 15.8532C21.2757 15.8759 21.2567 15.8917 21.2351 15.8917Z" fill="#DBBE67"/>
<mask id="mask9_1116_4879" style="mask-type:luminance" maskUnits="userSpaceOnUse" x="9" y="14" width="13" height="1">
<path d="M9.98145 14.7839H21.3734V14.9599H9.98145V14.7839Z" fill="white"/>
</mask>
<g mask="url(#mask9_1116_4879)">
<path d="M21.3211 14.8803H10.0268C10.0018 14.8803 9.98145 14.8596 9.98145 14.8339C9.98145 14.8081 10.0018 14.7871 10.0268 14.7871H21.3211C21.3461 14.7871 21.3661 14.8081 21.3661 14.8339C21.3661 14.8596 21.3461 14.8803 21.3211 14.8803Z" fill="#DBBE67"/>
<path d="M21.3211 14.8803H10.0268C10.0018 14.8803 9.98145 14.8596 9.98145 14.8339C9.98145 14.8081 10.0018 14.7871 10.0268 14.7871H21.3211C21.3461 14.7871 21.3661 14.8081 21.3661 14.8339C21.3661 14.8596 21.3461 14.8803 21.3211 14.8803Z" fill="#DBBE67"/>
</g>
<path d="M10.1124 15.8917C10.0907 15.8917 10.0717 15.8759 10.0681 15.8532C10.0637 15.8281 10.0801 15.8037 10.1044 15.7992L21.2274 13.7766C21.2517 13.7721 21.2754 13.7893 21.2797 13.8144C21.2841 13.8398 21.2677 13.8639 21.2431 13.8684L10.1204 15.891C10.1177 15.8917 10.1151 15.8917 10.1124 15.8917Z" fill="#DBBE67"/>
<path d="M10.1124 15.8917C10.0907 15.8917 10.0717 15.8759 10.0681 15.8532C10.0637 15.8281 10.0801 15.8037 10.1044 15.7992L21.2274 13.7766C21.2517 13.7721 21.2754 13.7893 21.2797 13.8144C21.2841 13.8398 21.2677 13.8639 21.2431 13.8684L10.1204 15.891C10.1177 15.8917 10.1151 15.8917 10.1124 15.8917Z" fill="#DBBE67"/>
<path d="M10.3674 16.8723C10.349 16.8723 10.3317 16.8606 10.325 16.8417C10.3164 16.8173 10.3287 16.7905 10.352 16.7819L20.9654 12.7981C20.9887 12.7895 21.0147 12.8019 21.023 12.826C21.0317 12.85 21.0197 12.8769 20.996 12.8858L10.383 16.8695C10.3777 16.8712 10.3727 16.8723 10.3674 16.8723Z" fill="#DBBE67"/>
<path d="M10.3674 16.8723C10.349 16.8723 10.3317 16.8606 10.325 16.8417C10.3164 16.8173 10.3287 16.7905 10.352 16.7819L20.9654 12.7981C20.9887 12.7895 21.0147 12.8019 21.023 12.826C21.0317 12.85 21.0197 12.8769 20.996 12.8858L10.383 16.8695C10.3777 16.8712 10.3727 16.8723 10.3674 16.8723Z" fill="#DBBE67"/>
<path d="M10.7833 17.7921C10.7679 17.7921 10.7526 17.7838 10.7443 17.7687C10.7319 17.7467 10.7393 17.7182 10.7609 17.7051L20.5419 11.8816C20.5636 11.8686 20.5913 11.8761 20.6036 11.8985C20.6163 11.9208 20.6089 11.9494 20.5873 11.9621L10.8059 17.7859C10.7989 17.79 10.7909 17.7921 10.7833 17.7921Z" fill="#DBBE67"/>
<path d="M10.7833 17.7921C10.7679 17.7921 10.7526 17.7838 10.7443 17.7687C10.7319 17.7467 10.7393 17.7182 10.7609 17.7051L20.5419 11.8816C20.5636 11.8686 20.5913 11.8761 20.6036 11.8985C20.6163 11.9208 20.6089 11.9494 20.5873 11.9621L10.8059 17.7859C10.7989 17.79 10.7909 17.7921 10.7833 17.7921Z" fill="#DBBE67"/>
<path d="M11.3479 18.6238C11.3352 18.6238 11.3222 18.6183 11.3132 18.6073C11.2972 18.5873 11.2999 18.5581 11.3189 18.5416L19.9709 11.0547C19.9899 11.0382 20.0185 11.041 20.0345 11.0606C20.0505 11.0802 20.0482 11.1097 20.0289 11.1262L11.3769 18.6128C11.3685 18.6203 11.3582 18.6238 11.3479 18.6238Z" fill="#DBBE67"/>
<path d="M11.3479 18.6238C11.3352 18.6238 11.3222 18.6183 11.3132 18.6073C11.2972 18.5873 11.2999 18.5581 11.3189 18.5416L19.9709 11.0547C19.9899 11.0382 20.0185 11.041 20.0345 11.0606C20.0505 11.0802 20.0482 11.1097 20.0289 11.1262L11.3769 18.6128C11.3685 18.6203 11.3582 18.6238 11.3479 18.6238Z" fill="#DBBE67"/>
<path d="M12.0441 19.3414C12.0341 19.3414 12.0238 19.3379 12.0151 19.3307C11.9961 19.3142 11.9934 19.2847 12.0098 19.2651L19.2694 10.3427C19.2854 10.3228 19.3141 10.3203 19.3331 10.3368C19.3521 10.3533 19.3548 10.3829 19.3388 10.4025L12.0788 19.3249C12.0698 19.3359 12.0571 19.3414 12.0441 19.3414Z" fill="#DBBE67"/>
<path d="M12.0441 19.3414C12.0341 19.3414 12.0238 19.3379 12.0151 19.3307C11.9961 19.3142 11.9934 19.2847 12.0098 19.2651L19.2694 10.3427C19.2854 10.3228 19.3141 10.3203 19.3331 10.3368C19.3521 10.3533 19.3548 10.3829 19.3388 10.4025L12.0788 19.3249C12.0698 19.3359 12.0571 19.3414 12.0441 19.3414Z" fill="#DBBE67"/>
<path d="M12.8497 19.9237C12.842 19.9237 12.8343 19.9216 12.8273 19.9175C12.8057 19.9048 12.7983 19.8762 12.8107 19.8539L18.458 9.7669C18.4703 9.74456 18.498 9.73699 18.5197 9.75006C18.5413 9.76278 18.5487 9.79131 18.536 9.81365L12.889 19.9003C12.8807 19.9154 12.8653 19.9237 12.8497 19.9237Z" fill="#DBBE67"/>
<path d="M12.8497 19.9237C12.842 19.9237 12.8343 19.9216 12.8273 19.9175C12.8057 19.9048 12.7983 19.8762 12.8107 19.8539L18.458 9.7669C18.4703 9.74456 18.498 9.73699 18.5197 9.75006C18.5413 9.76278 18.5487 9.79131 18.536 9.81365L12.889 19.9003C12.8807 19.9154 12.8653 19.9237 12.8497 19.9237Z" fill="#DBBE67"/>
<path d="M13.7426 20.3527C13.7372 20.3527 13.7322 20.352 13.7269 20.3499C13.7036 20.341 13.6916 20.3145 13.6999 20.2901L17.5629 9.34544C17.5716 9.32104 17.5972 9.30866 17.6209 9.3176C17.6442 9.32619 17.6562 9.35301 17.6479 9.37707L13.7849 20.3221C13.7782 20.341 13.7609 20.3527 13.7426 20.3527Z" fill="#DBBE67"/>
<path d="M13.7426 20.3527C13.7372 20.3527 13.7322 20.352 13.7269 20.3499C13.7036 20.341 13.6916 20.3145 13.6999 20.2901L17.5629 9.34544C17.5716 9.32104 17.5972 9.30866 17.6209 9.3176C17.6442 9.32619 17.6562 9.35301 17.6479 9.37707L13.7849 20.3221C13.7782 20.341 13.7609 20.3527 13.7426 20.3527Z" fill="#DBBE67"/>
<path d="M14.6935 20.6158C14.6911 20.6158 14.6885 20.6154 14.6858 20.6148C14.6611 20.6103 14.6448 20.5862 14.6491 20.5608L16.6105 9.09053C16.6148 9.0651 16.6381 9.04825 16.6628 9.05272C16.6871 9.05719 16.7038 9.08125 16.6995 9.10669L14.7381 20.5773C14.7341 20.5996 14.7151 20.6158 14.6935 20.6158Z" fill="#DBBE67"/>
</g>
</g>
<path d="M16.5347 17.5456C16.6857 17.5456 16.802 17.5068 16.884 17.4288C17.018 17.2906 17.088 17.1434 17.0933 16.9874V14.6898H14.2613V16.9778C14.2613 17.1345 14.3163 17.2686 14.4267 17.3793C14.5377 17.4903 14.6693 17.5456 14.8213 17.5456H14.9253L14.9347 17.6364H12.2773V17.5456H12.392C12.543 17.5456 12.6723 17.4903 12.78 17.3793C12.8873 17.2686 12.9443 17.1345 12.9507 16.9778V11.9851C12.9443 11.8294 12.8873 11.696 12.78 11.585C12.6723 11.4733 12.543 11.4173 12.392 11.4173H12.2773V11.3279H14.9347L14.9253 11.4173H14.8213C14.6693 11.4173 14.5377 11.4733 14.4267 11.585C14.3163 11.696 14.2613 11.8294 14.2613 11.9851V14.302H17.0933V11.9851C17.088 11.8294 17.031 11.696 16.9227 11.585C16.815 11.4733 16.6857 11.4173 16.5347 11.4173H16.42V11.3279H19.0773V11.4173H18.964C18.812 11.4173 18.6803 11.4733 18.5693 11.585C18.459 11.696 18.404 11.8294 18.404 11.9851V16.9778C18.404 17.1345 18.459 17.2686 18.5693 17.3793C18.6803 17.4903 18.812 17.5456 18.964 17.5456H19.0773V17.6364H16.42V17.5456H16.5347Z" fill="white"/>
<path d="M6.18701 28.918C6.23301 28.918 6.27268 28.9012 6.30568 28.8672C6.33834 28.8335 6.35568 28.7926 6.35768 28.7448V27.2144C6.35401 27.167 6.34068 27.1319 6.31768 27.1099C6.27501 27.0697 6.23134 27.0494 6.18701 27.0494H6.15234V27.0219H7.17234C7.25934 27.0219 7.33134 27.015 7.38834 27.0013C7.44501 26.9875 7.47968 26.9779 7.49234 26.9724V27.4537L7.46568 27.4509V27.4207C7.46568 27.3072 7.42468 27.2264 7.34301 27.1787C7.30368 27.1549 7.25768 27.1422 7.20434 27.1402H6.75634V27.9404H7.10834C7.17401 27.9387 7.22834 27.9153 7.27101 27.8703C7.31368 27.8256 7.33501 27.7699 7.33501 27.7039V27.6792H7.36168V28.313H7.33501V28.291C7.33501 28.2243 7.31401 28.1687 7.27234 28.1247C7.23034 28.0807 7.17768 28.058 7.11368 28.0559H6.75634V28.8273H7.10568C7.23534 28.8273 7.34434 28.7888 7.43234 28.7118C7.52034 28.6348 7.58568 28.5258 7.62834 28.3845H7.65501L7.53234 28.9455H6.15234V28.918H6.18701Z" fill="white"/>
<path d="M8.12598 28.6898C8.12598 28.5578 8.15331 28.445 8.20864 28.3515H8.23264C8.23064 28.3663 8.22998 28.3811 8.22998 28.3955C8.22998 28.522 8.27398 28.6327 8.36198 28.7269C8.44998 28.8214 8.56998 28.8685 8.72198 28.8685C8.84098 28.8685 8.93398 28.8393 9.00064 28.7805C9.06731 28.7221 9.10064 28.6478 9.10064 28.5578C9.10064 28.5048 9.08398 28.4571 9.05131 28.4148C9.01831 28.3728 8.96364 28.3261 8.88731 28.2745L8.42464 27.9596C8.25198 27.8407 8.16598 27.6939 8.16598 27.5196C8.16598 27.5014 8.16764 27.4832 8.17131 27.4646C8.18198 27.3199 8.23664 27.2034 8.33531 27.1154C8.43398 27.0274 8.56531 26.9834 8.72998 26.9834C8.82764 26.9834 8.94864 26.9927 9.09264 27.0109H9.26064L9.22598 27.4151H9.19931C9.19931 27.3199 9.16498 27.2433 9.09664 27.1855C9.02798 27.1278 8.93698 27.0989 8.82331 27.0989C8.68531 27.0989 8.58531 27.1429 8.52331 27.2309C8.49131 27.2732 8.47531 27.3155 8.47531 27.3574C8.47531 27.3997 8.48331 27.4354 8.49931 27.4646C8.52398 27.5124 8.57798 27.5636 8.66064 27.6186L9.16998 27.9596C9.32998 28.0679 9.40998 28.2085 9.40998 28.3818C9.40998 28.5763 9.34531 28.7252 9.21664 28.8286C9.08764 28.9325 8.91664 28.984 8.70331 28.984C8.58331 28.984 8.47198 28.9689 8.36998 28.9386C8.26764 28.9084 8.19264 28.8678 8.14464 28.8163C8.13198 28.7816 8.12598 28.7393 8.12598 28.6898Z" fill="white"/>
<path d="M12.3269 28.918H12.3696V28.9455H11.5709V28.9208H11.6109C11.6409 28.9191 11.6669 28.9063 11.6883 28.8823C11.7096 28.8586 11.7183 28.8321 11.7149 28.8025L11.6109 27.8056L11.1096 28.6953C11.0436 28.8091 11.0099 28.9108 11.0083 29.0005H10.9816L10.2976 27.8139L10.1936 28.8025C10.1899 28.8321 10.1989 28.8589 10.2203 28.8836C10.2416 28.9084 10.2673 28.9208 10.2976 28.9208H10.3376V28.9455H9.78027V28.918H9.82294C9.87261 28.918 9.91561 28.9026 9.95227 28.8713C9.98861 28.8403 10.0103 28.7981 10.0176 28.7448L10.2389 26.9834H10.2629L11.0883 28.3845L11.8816 26.9834H11.9056L12.1323 28.7448C12.1409 28.7981 12.1636 28.8403 12.2003 28.8713C12.2366 28.9026 12.2789 28.918 12.3269 28.918Z" fill="white"/>
<path d="M12.7622 28.918C12.8082 28.918 12.8479 28.9012 12.8809 28.8672C12.9135 28.8335 12.9309 28.7926 12.9329 28.7448V27.2144C12.9292 27.167 12.9159 27.1319 12.8929 27.1099C12.8502 27.0697 12.8065 27.0494 12.7622 27.0494H12.7275V27.0219H13.7475C13.8345 27.0219 13.9065 27.015 13.9635 27.0013C14.0202 26.9875 14.0549 26.9779 14.0675 26.9724V27.4537L14.0409 27.4509V27.4207C14.0409 27.3072 13.9999 27.2264 13.9182 27.1787C13.8789 27.1549 13.8329 27.1422 13.7795 27.1402H13.3315V27.9404H13.6835C13.7492 27.9387 13.8035 27.9153 13.8462 27.8703C13.8889 27.8256 13.9102 27.7699 13.9102 27.7039V27.6792H13.9369V28.313H13.9102V28.291C13.9102 28.2243 13.8892 28.1687 13.8475 28.1247C13.8055 28.0807 13.7529 28.058 13.6889 28.0559H13.3315V28.8273H13.6809C13.8105 28.8273 13.9195 28.7888 14.0075 28.7118C14.0955 28.6348 14.1609 28.5258 14.2035 28.3845H14.2302L14.1075 28.9455H12.7275V28.918H12.7622Z" fill="white"/>
<path d="M15.4151 27.143H15.3005C15.2968 27.143 15.2941 27.143 15.2925 27.143V28.7448C15.2941 28.7926 15.3115 28.8335 15.3445 28.8672C15.3771 28.9013 15.4168 28.9181 15.4631 28.9181H15.4978V28.9456H14.6885V28.9181H14.7231C14.7871 28.9181 14.8358 28.8899 14.8698 28.8328C14.8838 28.8074 14.8918 28.7789 14.8938 28.7476V27.2227C14.8918 27.1753 14.8745 27.1344 14.8418 27.1003C14.8088 27.0667 14.7691 27.0495 14.7231 27.0495H14.6885V27.022H15.6018C15.7741 27.022 15.9198 27.0605 16.0391 27.1375C16.0995 27.176 16.1475 27.2296 16.1831 27.2983C16.2185 27.3671 16.2365 27.4572 16.2365 27.5678C16.2365 27.6789 16.1991 27.7858 16.1245 27.8882C16.0498 27.991 15.9411 28.0498 15.7991 28.0642C15.9021 28.0993 15.9928 28.1794 16.0711 28.3048C16.2631 28.6221 16.4051 28.8108 16.4978 28.8713C16.5438 28.9009 16.6011 28.9164 16.6698 28.9181V28.9456H16.4098C16.2551 28.9456 16.1265 28.9246 16.0245 28.8823C15.9221 28.8404 15.8418 28.7662 15.7831 28.6596C15.7491 28.5991 15.6755 28.443 15.5618 28.1907C15.5118 28.079 15.4515 28.0175 15.3805 28.0065V27.979H15.4631C15.5431 27.979 15.6138 27.9542 15.6751 27.9047C15.7365 27.8552 15.7778 27.7748 15.7991 27.6627C15.8061 27.6242 15.8098 27.594 15.8098 27.572C15.8098 27.4218 15.7805 27.3131 15.7218 27.2461C15.6631 27.1794 15.5875 27.145 15.4951 27.143C15.4771 27.143 15.4505 27.143 15.4151 27.143Z" fill="white"/>
<path d="M18.7965 28.9182H18.8205V28.9457H17.9698V28.9182H17.9938C18.0328 28.9182 18.0618 28.9058 18.0805 28.881C18.0991 28.8563 18.1085 28.8329 18.1085 28.8109C18.1085 28.7889 18.1038 28.7669 18.0951 28.7449L17.9645 28.4067H17.3418L17.2031 28.7449C17.1941 28.769 17.1898 28.7913 17.1898 28.8123C17.1898 28.8336 17.1995 28.8563 17.2191 28.881C17.2385 28.9058 17.2678 28.9182 17.3071 28.9182H17.3285V28.9457H16.7578V28.9182H16.7818C16.8228 28.9182 16.8635 28.9054 16.9045 28.8797C16.9451 28.8542 16.9791 28.8157 17.0058 28.7642L17.6205 27.3273C17.7038 27.1458 17.7485 27.0258 17.7538 26.967H17.7778L18.5698 28.7587C18.5965 28.8119 18.6301 28.8518 18.6711 28.8783C18.7118 28.9051 18.7538 28.9182 18.7965 28.9182ZM17.3871 28.2912H17.9191L17.6605 27.616L17.3871 28.2912Z" fill="white"/>
<path d="M19.1558 28.9181C19.2018 28.9181 19.2414 28.9013 19.2744 28.8672C19.3071 28.8335 19.3244 28.7926 19.3264 28.7448V27.2227C19.3244 27.1753 19.3071 27.1344 19.2744 27.1003C19.2414 27.0667 19.2018 27.0495 19.1558 27.0495H19.1211V27.022H19.9304L19.9278 27.0495H19.8958C19.8494 27.0495 19.8094 27.0667 19.7758 27.1003C19.7418 27.1344 19.7251 27.1753 19.7251 27.2227V28.8273H20.0744C20.2041 28.8273 20.3131 28.7888 20.4011 28.7118C20.4891 28.6348 20.5544 28.5259 20.5971 28.3846H20.6238L20.5011 28.9456H19.1211V28.9181H19.1558Z" fill="white"/>
<path d="M22.0008 27.022C22.3155 27.022 22.5638 27.1083 22.7462 27.2805C22.9292 27.453 23.0208 27.6875 23.0208 27.9845C23.0208 28.2808 22.9292 28.5149 22.7462 28.6871C22.5638 28.8597 22.3155 28.9456 22.0008 28.9456H21.0342V28.9181H21.0688C21.1148 28.9181 21.1545 28.9013 21.1875 28.8672C21.2202 28.8335 21.2375 28.7926 21.2395 28.7448V27.2062C21.2395 27.1622 21.2222 27.1251 21.1875 27.0948C21.1528 27.0646 21.1132 27.0495 21.0688 27.0495H21.0342V27.022H22.0008ZM21.9662 28.8273C22.0942 28.8273 22.2048 28.7937 22.2982 28.7256C22.3915 28.6579 22.4628 28.5606 22.5128 28.4341C22.5625 28.3069 22.5875 28.168 22.5875 28.0175C22.5875 27.8673 22.5728 27.7394 22.5435 27.6338C22.5142 27.5287 22.4728 27.4393 22.4195 27.3657C22.3092 27.2138 22.1582 27.1375 21.9662 27.1375H21.6382V28.8273H21.9662Z" fill="white"/>
<path d="M25.3668 28.9182H25.3908V28.9457H24.5401V28.9182H24.5641C24.6031 28.9182 24.6321 28.9058 24.6508 28.881C24.6695 28.8563 24.6788 28.8329 24.6788 28.8109C24.6788 28.7889 24.6741 28.7669 24.6655 28.7449L24.5348 28.4067H23.9121L23.7735 28.7449C23.7645 28.769 23.7601 28.7913 23.7601 28.8123C23.7601 28.8336 23.7698 28.8563 23.7895 28.881C23.8088 28.9058 23.8381 28.9182 23.8775 28.9182H23.8988V28.9457H23.3281V28.9182H23.3521C23.3931 28.9182 23.4338 28.9054 23.4748 28.8797C23.5155 28.8542 23.5495 28.8157 23.5761 28.7642L24.1908 27.3273C24.2741 27.1458 24.3188 27.0258 24.3241 26.967H24.3481L25.1401 28.7587C25.1668 28.8119 25.2005 28.8518 25.2415 28.8783C25.2821 28.9051 25.3241 28.9182 25.3668 28.9182ZM23.9575 28.2912H24.4895L24.2308 27.616L23.9575 28.2912Z" fill="white"/>
<path d="M8.22207 31.3392L8.00607 31.0216C7.9794 31.0236 7.9584 31.0243 7.9434 31.0243H7.6954V31.3392H7.55273V30.3052H7.9434C8.07307 30.3052 8.1754 30.3375 8.25007 30.4014C8.32473 30.4657 8.36207 30.5537 8.36207 30.6654C8.36207 30.7452 8.34273 30.8136 8.30473 30.8703C8.2664 30.9263 8.21173 30.9672 8.14073 30.9927L8.37807 31.3392H8.22207ZM7.9394 30.8992C8.03007 30.8992 8.09873 30.8792 8.14607 30.8387C8.19407 30.7985 8.21807 30.7407 8.21807 30.6654C8.21807 30.5912 8.19407 30.5345 8.14607 30.4949C8.09873 30.4547 8.03007 30.4344 7.9394 30.4344H7.6954V30.8992H7.9394Z" fill="#DBBE67"/>
<path d="M9.85167 31.2113V31.3392H9.125V30.3052H9.83167V30.4344H9.26767V30.7521H9.77033V30.8772H9.26767V31.2113H9.85167Z" fill="#DBBE67"/>
<path d="M10.9084 31.3516C10.8327 31.3516 10.7597 31.3395 10.6897 31.3158C10.6194 31.2911 10.5644 31.2594 10.5244 31.2209L10.5777 31.1054C10.6157 31.1412 10.6647 31.1701 10.7244 31.1921C10.7837 31.2141 10.8451 31.2251 10.9084 31.2251C10.9911 31.2251 11.0527 31.211 11.0937 31.1824C11.1354 31.1532 11.1564 31.1144 11.1564 31.0656C11.1564 31.0308 11.1447 31.0023 11.1217 30.9803C11.0994 30.9576 11.0717 30.9404 11.0391 30.9294C11.0061 30.9178 10.9594 30.904 10.8991 30.8882C10.8244 30.87 10.7634 30.8518 10.7164 30.8332C10.6701 30.8139 10.6304 30.7851 10.5977 30.7466C10.5647 30.7074 10.5484 30.6544 10.5484 30.5884C10.5484 30.5334 10.5624 30.4839 10.5911 30.4399C10.6194 30.3959 10.6621 30.3609 10.7191 30.3341C10.7767 30.3076 10.8477 30.2942 10.9324 30.2942C10.9917 30.2942 11.0501 30.3021 11.1071 30.3176C11.1647 30.3334 11.2141 30.3557 11.2551 30.3849L11.2071 30.5032C11.1651 30.4757 11.1204 30.4551 11.0724 30.4413C11.0251 30.4269 10.9784 30.4193 10.9324 30.4193C10.8514 30.4193 10.7904 30.4344 10.7497 30.4647C10.7097 30.4949 10.6897 30.5345 10.6897 30.5829C10.6897 30.6187 10.7007 30.6476 10.7231 30.6696C10.7461 30.6916 10.7744 30.7091 10.8084 30.7218C10.8421 30.7338 10.8884 30.7466 10.9471 30.7603C11.0224 30.7789 11.0831 30.7974 11.1284 30.8167C11.1744 30.8353 11.2141 30.8634 11.2471 30.9019C11.2797 30.9404 11.2964 30.9923 11.2964 31.0573C11.2964 31.1116 11.2817 31.1611 11.2524 31.2058C11.2237 31.2508 11.1804 31.2866 11.1217 31.3131C11.0637 31.3388 10.9927 31.3516 10.9084 31.3516Z" fill="#DBBE67"/>
<path d="M12.4894 31.3516C12.3881 31.3516 12.2967 31.3289 12.2161 31.2828C12.1351 31.2371 12.0714 31.1738 12.0254 31.0931C11.9791 31.0126 11.9561 30.9222 11.9561 30.8222C11.9561 30.7232 11.9791 30.6335 12.0254 30.5527C12.0714 30.4712 12.1351 30.408 12.2161 30.3629C12.2967 30.3172 12.3881 30.2942 12.4894 30.2942C12.5897 30.2942 12.6804 30.3172 12.7614 30.3629C12.8431 30.408 12.9067 30.4709 12.9521 30.5513C12.9981 30.6321 13.0214 30.7225 13.0214 30.8222C13.0214 30.9233 12.9981 31.014 12.9521 31.0944C12.9067 31.1742 12.8431 31.2371 12.7614 31.2828C12.6804 31.3289 12.5897 31.3516 12.4894 31.3516ZM12.4894 31.2196C12.5631 31.2196 12.6294 31.2027 12.6881 31.1687C12.7467 31.134 12.7927 31.0862 12.8267 31.0257C12.8604 30.9652 12.8774 30.8975 12.8774 30.8222C12.8774 30.7473 12.8604 30.6792 12.8267 30.6187C12.7927 30.5582 12.7467 30.5111 12.6881 30.4771C12.6294 30.4423 12.5631 30.4248 12.4894 30.4248C12.4154 30.4248 12.3487 30.4423 12.2894 30.4771C12.2297 30.5111 12.1831 30.5582 12.1494 30.6187C12.1154 30.6792 12.0987 30.7473 12.0987 30.8222C12.0987 30.8975 12.1154 30.9652 12.1494 31.0257C12.1831 31.0862 12.2297 31.134 12.2894 31.1687C12.3487 31.2027 12.4154 31.2196 12.4894 31.2196Z" fill="#DBBE67"/>
<path d="M14.4408 31.3392L14.2248 31.0216C14.1982 31.0236 14.1772 31.0243 14.1622 31.0243H13.9142V31.3392H13.7715V30.3052H14.1622C14.2918 30.3052 14.3942 30.3375 14.4688 30.4014C14.5435 30.4657 14.5808 30.5537 14.5808 30.6654C14.5808 30.7452 14.5615 30.8136 14.5235 30.8703C14.4852 30.9263 14.4305 30.9672 14.3595 30.9927L14.5968 31.3392H14.4408ZM14.1582 30.8992C14.2488 30.8992 14.3175 30.8792 14.3648 30.8387C14.4128 30.7985 14.4368 30.7407 14.4368 30.6654C14.4368 30.5912 14.4128 30.5345 14.3648 30.4949C14.3175 30.4547 14.2488 30.4344 14.1582 30.4344H13.9142V30.8992H14.1582Z" fill="#DBBE67"/>
<path d="M15.5422 30.4344H15.1982V30.3052H16.0276V30.4344H15.6836V31.3392H15.5422V30.4344Z" fill="#DBBE67"/>
<path d="M18.3659 31.3556L18.2326 31.2181C18.1436 31.3072 18.0316 31.3515 17.8966 31.3515C17.8299 31.3515 17.7699 31.3398 17.7166 31.3171C17.6632 31.2944 17.6212 31.2628 17.5912 31.2222C17.5609 31.181 17.5459 31.1342 17.5459 31.082C17.5459 31.0187 17.5646 30.9631 17.6019 30.9142C17.6399 30.8658 17.7026 30.8159 17.7899 30.7644C17.7462 30.7197 17.7152 30.6788 17.6966 30.642C17.6786 30.6056 17.6699 30.5674 17.6699 30.5279C17.6699 30.4584 17.6942 30.4024 17.7432 30.3601C17.7919 30.3182 17.8579 30.2969 17.9406 30.2969C18.0169 30.2969 18.0772 30.3161 18.1219 30.3546C18.1672 30.3931 18.1899 30.4461 18.1899 30.5127C18.1899 30.5643 18.1729 30.6111 18.1392 30.653C18.1062 30.6942 18.0519 30.7376 17.9766 30.7822L18.2232 31.0366C18.2526 30.9809 18.2732 30.918 18.2859 30.8482L18.3952 30.8854C18.3782 30.9761 18.3492 31.0552 18.3086 31.1219L18.4432 31.2607L18.3659 31.3556ZM17.9406 30.4C17.8952 30.4 17.8596 30.4117 17.8339 30.4344C17.8089 30.4574 17.7966 30.4877 17.7966 30.5251C17.7966 30.5519 17.8032 30.5774 17.8166 30.6021C17.8306 30.6269 17.8582 30.6606 17.8992 30.7025C17.9649 30.664 18.0102 30.631 18.0352 30.6035C18.0609 30.576 18.0739 30.5464 18.0739 30.5141C18.0739 30.4794 18.0619 30.4519 18.0379 30.4316C18.0146 30.4107 17.9822 30.4 17.9406 30.4ZM17.9059 31.2332C18.0052 31.2332 18.0872 31.2009 18.1512 31.1356L17.8659 30.8427C17.7972 30.8823 17.7492 30.9191 17.7219 30.9527C17.6942 30.9868 17.6806 31.0249 17.6806 31.0669C17.6806 31.1164 17.7012 31.1569 17.7432 31.1879C17.7849 31.2181 17.8392 31.2332 17.9059 31.2332Z" fill="#DBBE67"/>
<path d="M20.3547 31.3516C20.279 31.3516 20.206 31.3395 20.136 31.3158C20.0657 31.2911 20.0107 31.2594 19.9707 31.2209L20.024 31.1054C20.062 31.1412 20.111 31.1701 20.1707 31.1921C20.23 31.2141 20.2914 31.2251 20.3547 31.2251C20.4374 31.2251 20.499 31.211 20.54 31.1824C20.5817 31.1532 20.6027 31.1144 20.6027 31.0656C20.6027 31.0308 20.591 31.0023 20.568 30.9803C20.5457 30.9576 20.518 30.9404 20.4854 30.9294C20.4524 30.9178 20.4057 30.904 20.3454 30.8882C20.2707 30.87 20.2097 30.8518 20.1627 30.8332C20.1164 30.8139 20.0767 30.7851 20.044 30.7466C20.011 30.7074 19.9947 30.6544 19.9947 30.5884C19.9947 30.5334 20.0087 30.4839 20.0374 30.4399C20.0657 30.3959 20.1084 30.3609 20.1654 30.3341C20.223 30.3076 20.294 30.2942 20.3787 30.2942C20.438 30.2942 20.4964 30.3021 20.5534 30.3176C20.611 30.3334 20.6604 30.3557 20.7014 30.3849L20.6534 30.5032C20.6114 30.4757 20.5667 30.4551 20.5187 30.4413C20.4714 30.4269 20.4247 30.4193 20.3787 30.4193C20.2977 30.4193 20.2367 30.4344 20.196 30.4647C20.156 30.4949 20.136 30.5345 20.136 30.5829C20.136 30.6187 20.147 30.6476 20.1694 30.6696C20.1924 30.6916 20.2207 30.7091 20.2547 30.7218C20.2884 30.7338 20.3347 30.7466 20.3934 30.7603C20.4687 30.7789 20.5294 30.7974 20.5747 30.8167C20.6207 30.8353 20.6604 30.8634 20.6934 30.9019C20.726 30.9404 20.7427 30.9923 20.7427 31.0573C20.7427 31.1116 20.728 31.1611 20.6987 31.2058C20.67 31.2508 20.6267 31.2866 20.568 31.3131C20.51 31.3388 20.439 31.3516 20.3547 31.3516Z" fill="#DBBE67"/>
<path d="M21.8741 30.3052C22.0037 30.3052 22.1061 30.3375 22.1807 30.4014C22.2554 30.4657 22.2927 30.5537 22.2927 30.6654C22.2927 30.7782 22.2554 30.8669 22.1807 30.9308C22.1061 30.9941 22.0037 31.0257 21.8741 31.0257H21.6261V31.3392H21.4834V30.3052H21.8741ZM21.8701 30.8978C21.9607 30.8978 22.0294 30.8782 22.0767 30.8387C22.1247 30.7985 22.1487 30.7407 22.1487 30.6654C22.1487 30.5912 22.1247 30.5345 22.0767 30.4949C22.0294 30.4547 21.9607 30.4344 21.8701 30.4344H21.6261V30.8978H21.8701Z" fill="#DBBE67"/>
<path d="M23.6872 31.0807H23.1538L23.0445 31.3392H22.8965L23.3498 30.3052H23.4925L23.9472 31.3392H23.7965L23.6872 31.0807ZM23.6365 30.9624L23.4205 30.4564L23.2045 30.9624H23.6365Z" fill="#DBBE67"/>
</g>
<defs>
<clipPath id="clip0_1116_4879">
<rect width="32" height="33" rx="5" fill="white"/>
</clipPath>
</defs>
</svg>
