<svg width="16" height="16" viewBox="0 0 16 16" fill="none" xmlns="http://www.w3.org/2000/svg">
<path fill-rule="evenodd" clip-rule="evenodd" d="M2.14385 8.00008C2.52895 8.53118 3.31821 9.53192 4.35749 10.4032C5.4351 11.3066 6.69691 12.0001 7.9997 12.0001C9.30249 12.0001 10.5643 11.3066 11.6419 10.4032C12.6812 9.53192 13.4705 8.53118 13.8556 8.00008C13.4705 7.46898 12.6812 6.46824 11.6419 5.59694C10.5643 4.69352 9.30249 4.00008 7.9997 4.00008C6.69691 4.00008 5.4351 4.69352 4.35749 5.59694C3.31821 6.46824 2.52895 7.46898 2.14385 8.00008ZM3.50088 4.57518C4.67537 3.59053 6.23723 2.66675 7.9997 2.66675C9.76218 2.66675 11.324 3.59053 12.4985 4.57518C13.6844 5.56937 14.5618 6.69817 14.9673 7.26208C15.2862 7.70566 15.2862 8.2945 14.9673 8.73808C14.5618 9.30199 13.6844 10.4308 12.4985 11.425C11.324 12.4096 9.76218 13.3334 7.9997 13.3334C6.23723 13.3334 4.67537 12.4096 3.50088 11.425C2.31501 10.4308 1.43758 9.30199 1.03215 8.73808C0.713241 8.2945 0.71324 7.70566 1.03215 7.26208C1.43757 6.69817 2.31501 5.56937 3.50088 4.57518Z" fill="#64748B"/>
<path fill-rule="evenodd" clip-rule="evenodd" d="M7.9997 9.33341C8.73608 9.33341 9.33304 8.73646 9.33304 8.00008C9.33304 7.2637 8.73608 6.66675 7.9997 6.66675C7.26332 6.66675 6.66637 7.2637 6.66637 8.00008C6.66637 8.73646 7.26332 9.33341 7.9997 9.33341ZM7.9997 10.6667C9.47246 10.6667 10.6664 9.47284 10.6664 8.00008C10.6664 6.52732 9.47246 5.33341 7.9997 5.33341C6.52694 5.33341 5.33304 6.52732 5.33304 8.00008C5.33304 9.47284 6.52694 10.6667 7.9997 10.6667Z" fill="#64748B"/>
</svg>
